<?xml version="1.0" encoding="UTF-8"?>
<svg xmlns="http://www.w3.org/2000/svg" xmlns:xlink="http://www.w3.org/1999/xlink" width="197.946pt" height="112.907pt" viewBox="0 0 197.946 112.907">
<defs>
<g>
<g id="glyph-0-0">
<path d="M 4.46875 -2 C 4.46875 -3.1875 3.65625 -4.1875 2.578125 -4.1875 C 2.109375 -4.1875 1.671875 -4.03125 1.3125 -3.671875 L 1.3125 -5.625 C 1.515625 -5.5625 1.84375 -5.5 2.15625 -5.5 C 3.390625 -5.5 4.09375 -6.40625 4.09375 -6.53125 C 4.09375 -6.59375 4.0625 -6.640625 3.984375 -6.640625 C 3.984375 -6.640625 3.953125 -6.640625 3.90625 -6.609375 C 3.703125 -6.515625 3.21875 -6.3125 2.546875 -6.3125 C 2.15625 -6.3125 1.6875 -6.390625 1.21875 -6.59375 C 1.140625 -6.625 1.125 -6.625 1.109375 -6.625 C 1 -6.625 1 -6.546875 1 -6.390625 L 1 -3.4375 C 1 -3.265625 1 -3.1875 1.140625 -3.1875 C 1.21875 -3.1875 1.234375 -3.203125 1.28125 -3.265625 C 1.390625 -3.421875 1.75 -3.96875 2.5625 -3.96875 C 3.078125 -3.96875 3.328125 -3.515625 3.40625 -3.328125 C 3.5625 -2.953125 3.59375 -2.578125 3.59375 -2.078125 C 3.59375 -1.71875 3.59375 -1.125 3.34375 -0.703125 C 3.109375 -0.3125 2.734375 -0.0625 2.28125 -0.0625 C 1.5625 -0.0625 0.984375 -0.59375 0.8125 -1.171875 C 0.84375 -1.171875 0.875 -1.15625 0.984375 -1.15625 C 1.3125 -1.15625 1.484375 -1.40625 1.484375 -1.640625 C 1.484375 -1.890625 1.3125 -2.140625 0.984375 -2.140625 C 0.84375 -2.140625 0.5 -2.0625 0.5 -1.609375 C 0.5 -0.75 1.1875 0.21875 2.296875 0.21875 C 3.453125 0.21875 4.46875 -0.734375 4.46875 -2 Z M 4.46875 -2 "/>
</g>
<g id="glyph-0-1">
<path d="M 2.890625 -3.515625 C 3.703125 -3.78125 4.28125 -4.46875 4.28125 -5.265625 C 4.28125 -6.078125 3.40625 -6.640625 2.453125 -6.640625 C 1.453125 -6.640625 0.6875 -6.046875 0.6875 -5.28125 C 0.6875 -4.953125 0.90625 -4.765625 1.203125 -4.765625 C 1.5 -4.765625 1.703125 -4.984375 1.703125 -5.28125 C 1.703125 -5.765625 1.234375 -5.765625 1.09375 -5.765625 C 1.390625 -6.265625 2.046875 -6.390625 2.40625 -6.390625 C 2.828125 -6.390625 3.375 -6.171875 3.375 -5.28125 C 3.375 -5.15625 3.34375 -4.578125 3.09375 -4.140625 C 2.796875 -3.65625 2.453125 -3.625 2.203125 -3.625 C 2.125 -3.609375 1.890625 -3.59375 1.8125 -3.59375 C 1.734375 -3.578125 1.671875 -3.5625 1.671875 -3.46875 C 1.671875 -3.359375 1.734375 -3.359375 1.90625 -3.359375 L 2.34375 -3.359375 C 3.15625 -3.359375 3.53125 -2.6875 3.53125 -1.703125 C 3.53125 -0.34375 2.84375 -0.0625 2.40625 -0.0625 C 1.96875 -0.0625 1.21875 -0.234375 0.875 -0.8125 C 1.21875 -0.765625 1.53125 -0.984375 1.53125 -1.359375 C 1.53125 -1.71875 1.265625 -1.921875 0.984375 -1.921875 C 0.734375 -1.921875 0.421875 -1.78125 0.421875 -1.34375 C 0.421875 -0.4375 1.34375 0.21875 2.4375 0.21875 C 3.65625 0.21875 4.5625 -0.6875 4.5625 -1.703125 C 4.5625 -2.515625 3.921875 -3.296875 2.890625 -3.515625 Z M 2.890625 -3.515625 "/>
</g>
<g id="glyph-0-2">
<path d="M 1.265625 -0.765625 L 2.328125 -1.796875 C 3.875 -3.171875 4.46875 -3.703125 4.46875 -4.703125 C 4.46875 -5.84375 3.578125 -6.640625 2.359375 -6.640625 C 1.234375 -6.640625 0.5 -5.71875 0.5 -4.828125 C 0.5 -4.28125 1 -4.28125 1.03125 -4.28125 C 1.203125 -4.28125 1.546875 -4.390625 1.546875 -4.8125 C 1.546875 -5.0625 1.359375 -5.328125 1.015625 -5.328125 C 0.9375 -5.328125 0.921875 -5.328125 0.890625 -5.3125 C 1.109375 -5.96875 1.65625 -6.328125 2.234375 -6.328125 C 3.140625 -6.328125 3.5625 -5.515625 3.5625 -4.703125 C 3.5625 -3.90625 3.078125 -3.125 2.515625 -2.5 L 0.609375 -0.375 C 0.5 -0.265625 0.5 -0.234375 0.5 0 L 4.203125 0 L 4.46875 -1.734375 L 4.234375 -1.734375 C 4.171875 -1.4375 4.109375 -1 4 -0.84375 C 3.9375 -0.765625 3.28125 -0.765625 3.0625 -0.765625 Z M 1.265625 -0.765625 "/>
</g>
<g id="glyph-0-3">
<path d="M 2.9375 -1.640625 L 2.9375 -0.78125 C 2.9375 -0.421875 2.90625 -0.3125 2.171875 -0.3125 L 1.96875 -0.3125 L 1.96875 0 C 2.375 -0.03125 2.890625 -0.03125 3.3125 -0.03125 C 3.734375 -0.03125 4.25 -0.03125 4.671875 0 L 4.671875 -0.3125 L 4.453125 -0.3125 C 3.71875 -0.3125 3.703125 -0.421875 3.703125 -0.78125 L 3.703125 -1.640625 L 4.6875 -1.640625 L 4.6875 -1.953125 L 3.703125 -1.953125 L 3.703125 -6.484375 C 3.703125 -6.6875 3.703125 -6.75 3.53125 -6.75 C 3.453125 -6.75 3.421875 -6.75 3.34375 -6.625 L 0.28125 -1.953125 L 0.28125 -1.640625 Z M 2.984375 -1.953125 L 0.5625 -1.953125 L 2.984375 -5.671875 Z M 2.984375 -1.953125 "/>
</g>
<g id="glyph-0-4">
<path d="M 4.75 -6.078125 C 4.828125 -6.1875 4.828125 -6.203125 4.828125 -6.421875 L 2.40625 -6.421875 C 1.203125 -6.421875 1.171875 -6.546875 1.140625 -6.734375 L 0.890625 -6.734375 L 0.5625 -4.6875 L 0.8125 -4.6875 C 0.84375 -4.84375 0.921875 -5.46875 1.0625 -5.59375 C 1.125 -5.65625 1.90625 -5.65625 2.03125 -5.65625 L 4.09375 -5.65625 C 3.984375 -5.5 3.203125 -4.40625 2.984375 -4.078125 C 2.078125 -2.734375 1.75 -1.34375 1.75 -0.328125 C 1.75 -0.234375 1.75 0.21875 2.21875 0.21875 C 2.671875 0.21875 2.671875 -0.234375 2.671875 -0.328125 L 2.671875 -0.84375 C 2.671875 -1.390625 2.703125 -1.9375 2.78125 -2.46875 C 2.828125 -2.703125 2.953125 -3.5625 3.40625 -4.171875 Z M 4.75 -6.078125 "/>
</g>
<g id="glyph-0-5">
<path d="M 1.3125 -3.265625 L 1.3125 -3.515625 C 1.3125 -6.03125 2.546875 -6.390625 3.0625 -6.390625 C 3.296875 -6.390625 3.71875 -6.328125 3.9375 -5.984375 C 3.78125 -5.984375 3.390625 -5.984375 3.390625 -5.546875 C 3.390625 -5.234375 3.625 -5.078125 3.84375 -5.078125 C 4 -5.078125 4.3125 -5.171875 4.3125 -5.5625 C 4.3125 -6.15625 3.875 -6.640625 3.046875 -6.640625 C 1.765625 -6.640625 0.421875 -5.359375 0.421875 -3.15625 C 0.421875 -0.484375 1.578125 0.21875 2.5 0.21875 C 3.609375 0.21875 4.5625 -0.71875 4.5625 -2.03125 C 4.5625 -3.296875 3.671875 -4.25 2.5625 -4.25 C 1.890625 -4.25 1.515625 -3.75 1.3125 -3.265625 Z M 2.5 -0.0625 C 1.875 -0.0625 1.578125 -0.65625 1.515625 -0.8125 C 1.328125 -1.28125 1.328125 -2.078125 1.328125 -2.25 C 1.328125 -3.03125 1.65625 -4.03125 2.546875 -4.03125 C 2.71875 -4.03125 3.171875 -4.03125 3.484375 -3.40625 C 3.65625 -3.046875 3.65625 -2.53125 3.65625 -2.046875 C 3.65625 -1.5625 3.65625 -1.0625 3.484375 -0.703125 C 3.1875 -0.109375 2.734375 -0.0625 2.5 -0.0625 Z M 2.5 -0.0625 "/>
</g>
<g id="glyph-0-6">
<path d="M 1.625 -4.5625 C 1.171875 -4.859375 1.125 -5.1875 1.125 -5.359375 C 1.125 -5.96875 1.78125 -6.390625 2.484375 -6.390625 C 3.203125 -6.390625 3.84375 -5.875 3.84375 -5.15625 C 3.84375 -4.578125 3.453125 -4.109375 2.859375 -3.765625 Z M 3.078125 -3.609375 C 3.796875 -3.984375 4.28125 -4.5 4.28125 -5.15625 C 4.28125 -6.078125 3.40625 -6.640625 2.5 -6.640625 C 1.5 -6.640625 0.6875 -5.90625 0.6875 -4.96875 C 0.6875 -4.796875 0.703125 -4.34375 1.125 -3.875 C 1.234375 -3.765625 1.609375 -3.515625 1.859375 -3.34375 C 1.28125 -3.046875 0.421875 -2.5 0.421875 -1.5 C 0.421875 -0.453125 1.4375 0.21875 2.484375 0.21875 C 3.609375 0.21875 4.5625 -0.609375 4.5625 -1.671875 C 4.5625 -2.03125 4.453125 -2.484375 4.0625 -2.90625 C 3.875 -3.109375 3.71875 -3.203125 3.078125 -3.609375 Z M 2.078125 -3.1875 L 3.3125 -2.40625 C 3.59375 -2.21875 4.0625 -1.921875 4.0625 -1.3125 C 4.0625 -0.578125 3.3125 -0.0625 2.5 -0.0625 C 1.640625 -0.0625 0.921875 -0.671875 0.921875 -1.5 C 0.921875 -2.078125 1.234375 -2.71875 2.078125 -3.1875 Z M 2.078125 -3.1875 "/>
</g>
</g>
<clipPath id="clip-0">
<path clip-rule="nonzero" d="M 0 0 L 197.945312 0 L 197.945312 112.90625 L 0 112.90625 Z M 0 0 "/>
</clipPath>
<clipPath id="clip-1">
<path clip-rule="nonzero" d="M 0 84 L 29 84 L 29 112.90625 L 0 112.90625 Z M 0 84 "/>
</clipPath>
<clipPath id="clip-2">
<path clip-rule="nonzero" d="M 56 84 L 86 84 L 86 112.90625 L 56 112.90625 Z M 56 84 "/>
</clipPath>
<clipPath id="clip-3">
<path clip-rule="nonzero" d="M 112 84 L 142 84 L 142 112.90625 L 112 112.90625 Z M 112 84 "/>
</clipPath>
<clipPath id="clip-4">
<path clip-rule="nonzero" d="M 169 84 L 197.945312 84 L 197.945312 112.90625 L 169 112.90625 Z M 169 84 "/>
</clipPath>
</defs>
<g clip-path="url(#clip-0)">
<path fill-rule="nonzero" fill="rgb(100%, 100%, 100%)" fill-opacity="1" d="M 0 112.910156 L 0 0 L 197.949219 0 L 197.949219 112.910156 Z M 0 112.910156 "/>
</g>
<path fill="none" stroke-width="0.3985" stroke-linecap="butt" stroke-linejoin="miter" stroke="rgb(0%, 0%, 0%)" stroke-opacity="1" stroke-miterlimit="10" d="M 8.753563 0.00040625 C 8.753563 4.832438 4.835594 8.754313 -0.00034375 8.754313 C -4.832375 8.754313 -8.75425 4.832438 -8.75425 0.00040625 C -8.75425 -4.835531 -4.832375 -8.7535 -0.00034375 -8.7535 C 4.835594 -8.7535 8.753563 -4.835531 8.753563 0.00040625 Z M 8.753563 0.00040625 " transform="matrix(1, 0, 0, -1, 98.973, 13.934)"/>
<g fill="rgb(0%, 0%, 0%)" fill-opacity="1">
<use xlink:href="#glyph-0-0" x="96.482" y="17.144"/>
</g>
<path fill="none" stroke-width="0.3985" stroke-linecap="butt" stroke-linejoin="miter" stroke="rgb(0%, 0%, 0%)" stroke-opacity="1" stroke-miterlimit="10" d="M -47.94175 -42.519125 C -47.94175 -37.687094 -51.859719 -33.765219 -56.69175 -33.765219 C -61.527687 -33.765219 -65.445656 -37.687094 -65.445656 -42.519125 C -65.445656 -47.355062 -61.527687 -51.273031 -56.69175 -51.273031 C -51.859719 -51.273031 -47.94175 -47.355062 -47.94175 -42.519125 Z M -47.94175 -42.519125 " transform="matrix(1, 0, 0, -1, 98.973, 13.934)"/>
<g fill="rgb(0%, 0%, 0%)" fill-opacity="1">
<use xlink:href="#glyph-0-1" x="39.789" y="59.664"/>
</g>
<path fill="none" stroke-width="0.3985" stroke-linecap="butt" stroke-linejoin="miter" stroke="rgb(0%, 0%, 0%)" stroke-opacity="1" stroke-miterlimit="10" d="M -7.1605 -5.370687 L -49.531594 -37.148031 " transform="matrix(1, 0, 0, -1, 98.973, 13.934)"/>
<g clip-path="url(#clip-1)">
<path fill="none" stroke-width="0.3985" stroke-linecap="butt" stroke-linejoin="miter" stroke="rgb(0%, 0%, 0%)" stroke-opacity="1" stroke-miterlimit="10" d="M -76.2855 -85.038656 C -76.2855 -80.206625 -80.207375 -76.288656 -85.039406 -76.288656 C -89.875344 -76.288656 -93.793312 -80.206625 -93.793312 -85.038656 C -93.793312 -89.874594 -89.875344 -93.792562 -85.039406 -93.792562 C -80.207375 -93.792562 -76.2855 -89.874594 -76.2855 -85.038656 Z M -76.2855 -85.038656 " transform="matrix(1, 0, 0, -1, 98.973, 13.934)"/>
</g>
<g fill="rgb(0%, 0%, 0%)" fill-opacity="1">
<use xlink:href="#glyph-0-2" x="11.443" y="102.184"/>
</g>
<path fill="none" stroke-width="0.3985" stroke-linecap="butt" stroke-linejoin="miter" stroke="rgb(0%, 0%, 0%)" stroke-opacity="1" stroke-miterlimit="10" d="M -61.6605 -49.968344 L -80.074562 -77.593344 " transform="matrix(1, 0, 0, -1, 98.973, 13.934)"/>
<g clip-path="url(#clip-2)">
<path fill="none" stroke-width="0.3985" stroke-linecap="butt" stroke-linejoin="miter" stroke="rgb(0%, 0%, 0%)" stroke-opacity="1" stroke-miterlimit="10" d="M -19.594094 -85.038656 C -19.594094 -80.206625 -23.512062 -76.288656 -28.348 -76.288656 C -33.180031 -76.288656 -37.098 -80.206625 -37.098 -85.038656 C -37.098 -89.874594 -33.180031 -93.792562 -28.348 -93.792562 C -23.512062 -93.792562 -19.594094 -89.874594 -19.594094 -85.038656 Z M -19.594094 -85.038656 " transform="matrix(1, 0, 0, -1, 98.973, 13.934)"/>
</g>
<g fill="rgb(0%, 0%, 0%)" fill-opacity="1">
<use xlink:href="#glyph-0-3" x="68.136" y="102.184"/>
</g>
<path fill="none" stroke-width="0.3985" stroke-linecap="butt" stroke-linejoin="miter" stroke="rgb(0%, 0%, 0%)" stroke-opacity="1" stroke-miterlimit="10" d="M -51.726906 -49.968344 L -33.312844 -77.593344 " transform="matrix(1, 0, 0, -1, 98.973, 13.934)"/>
<path fill="none" stroke-width="0.3985" stroke-linecap="butt" stroke-linejoin="miter" stroke="rgb(0%, 0%, 0%)" stroke-opacity="1" stroke-miterlimit="10" d="M 65.444969 -42.519125 C 65.444969 -37.687094 61.527 -33.765219 56.694969 -33.765219 C 51.859031 -33.765219 47.941063 -37.687094 47.941063 -42.519125 C 47.941063 -47.355062 51.859031 -51.273031 56.694969 -51.273031 C 61.527 -51.273031 65.444969 -47.355062 65.444969 -42.519125 Z M 65.444969 -42.519125 " transform="matrix(1, 0, 0, -1, 98.973, 13.934)"/>
<g fill="rgb(0%, 0%, 0%)" fill-opacity="1">
<use xlink:href="#glyph-0-4" x="153.175" y="59.664"/>
</g>
<path fill="none" stroke-width="0.3985" stroke-linecap="butt" stroke-linejoin="miter" stroke="rgb(0%, 0%, 0%)" stroke-opacity="1" stroke-miterlimit="10" d="M 7.159813 -5.370687 L 49.530906 -37.148031 " transform="matrix(1, 0, 0, -1, 98.973, 13.934)"/>
<g clip-path="url(#clip-3)">
<path fill="none" stroke-width="0.3985" stroke-linecap="butt" stroke-linejoin="miter" stroke="rgb(0%, 0%, 0%)" stroke-opacity="1" stroke-miterlimit="10" d="M 37.101219 -85.038656 C 37.101219 -80.206625 33.179344 -76.288656 28.347313 -76.288656 C 23.511375 -76.288656 19.593406 -80.206625 19.593406 -85.038656 C 19.593406 -89.874594 23.511375 -93.792562 28.347313 -93.792562 C 33.179344 -93.792562 37.101219 -89.874594 37.101219 -85.038656 Z M 37.101219 -85.038656 " transform="matrix(1, 0, 0, -1, 98.973, 13.934)"/>
</g>
<g fill="rgb(0%, 0%, 0%)" fill-opacity="1">
<use xlink:href="#glyph-0-5" x="124.829" y="102.184"/>
</g>
<path fill="none" stroke-width="0.3985" stroke-linecap="butt" stroke-linejoin="miter" stroke="rgb(0%, 0%, 0%)" stroke-opacity="1" stroke-miterlimit="10" d="M 51.726219 -49.968344 L 33.312156 -77.593344 " transform="matrix(1, 0, 0, -1, 98.973, 13.934)"/>
<g clip-path="url(#clip-4)">
<path fill="none" stroke-width="0.3985" stroke-linecap="butt" stroke-linejoin="miter" stroke="rgb(0%, 0%, 0%)" stroke-opacity="1" stroke-miterlimit="10" d="M 93.792625 -85.038656 C 93.792625 -80.206625 89.874656 -76.288656 85.038719 -76.288656 C 80.206688 -76.288656 76.288719 -80.206625 76.288719 -85.038656 C 76.288719 -89.874594 80.206688 -93.792562 85.038719 -93.792562 C 89.874656 -93.792562 93.792625 -89.874594 93.792625 -85.038656 Z M 93.792625 -85.038656 " transform="matrix(1, 0, 0, -1, 98.973, 13.934)"/>
</g>
<g fill="rgb(0%, 0%, 0%)" fill-opacity="1">
<use xlink:href="#glyph-0-6" x="181.522" y="102.184"/>
</g>
<path fill="none" stroke-width="0.3985" stroke-linecap="butt" stroke-linejoin="miter" stroke="rgb(0%, 0%, 0%)" stroke-opacity="1" stroke-miterlimit="10" d="M 61.659813 -49.968344 L 80.073875 -77.593344 " transform="matrix(1, 0, 0, -1, 98.973, 13.934)"/>
</svg>
